{
  "scene": 0,
  "asset": { "generator": "ImageToStl.com", "version": "2.0" },
  "scenes": [{ "name": "Scene", "nodes": [0] }],
  "nodes": [
    { "name": "Node0", "children": [1] },
    { "name": "Node1", "mesh": 0 }
  ],
  "materials": [
    {
      "name": "x1",
      "pbrMetallicRoughness": {
        "baseColorFactor": [0.85, 0.85, 0.85, 1.0],
        "metallicFactor": 0.05,
        "roughnessFactor": 0.5
      },
      "doubleSided": true
    }
  ],
  "meshes": [
    {
      "name": "Mesh0",
      "primitives": [
        { "indices": 1, "material": 0, "attributes": { "POSITION": 0 } }
      ]
    }
  ],
  "accessors": [
    {
      "bufferView": 0,
      "componentType": 5126,
      "count": 8,
      "type": "VEC3",
      "min": [-1.0, -1.0, -1.0],
      "max": [1.0, 1.0, 1.0]
    },
    { "bufferView": 1, "componentType": 5123, "count": 36, "type": "SCALAR" }
  ],
  "bufferViews": [
    { "target": 34962, "buffer": 0, "byteLength": 96, "byteOffset": 0 },
    { "target": 34963, "buffer": 0, "byteLength": 72, "byteOffset": 96 }
  ],
  "buffers": [
    {
      "byteLength": 168,
      "uri": "data:application/octet-stream;base64,"
    }
  ]
}
